<svg width="320" height="520" viewBox="0 0 320 520" fill="none" xmlns="http://www.w3.org/2000/svg">
  <defs>
    <linearGradient id="g1" x1="0" y1="0" x2="0" y2="1">
      <stop offset="0%" stop-color="#ffb347"/>
      <stop offset="100%" stop-color="#ff6b6b"/>
    </linearGradient>
    <radialGradient id="g2" cx="50%" cy="35%" r="65%">
      <stop offset="0%" stop-color="#fff7e6" stop-opacity="0.9"/>
      <stop offset="100%" stop-color="#ffb347" stop-opacity="0"/>
    </radialGradient>
  </defs>
  <rect width="320" height="520" rx="18" fill="url(#g1)"/>
  <rect width="320" height="520" rx="18" fill="url(#g2)"/>
  <g transform="translate(40, 80)">
    <path d="M20 220c0-60 60-90 100-90s100 30 100 90c0 50-50 90-100 90s-100-40-100-90z" fill="#fff" opacity="0.9"/>
    <path d="M40 200c0-40 44-60 80-60s80 20 80 60c0 35-38 60-80 60s-80-25-80-60z" fill="#ffe8d0"/>
    <path d="M55 195c0-28 34-42 65-42s65 14 65 42c0 24-30 40-65 40s-65-16-65-40z" fill="#ff8c42"/>
    <ellipse cx="120" cy="197" rx="90" ry="18" fill="#ff6b6b" opacity="0.8"/>
    <ellipse cx="120" cy="212" rx="96" ry="16" fill="#d64933" opacity="0.55"/>
    <path d="M70 170c10 8 18 10 30 6s18-12 32-12 24 6 32 12c10 6 20 8 30 4" stroke="#c93" stroke-width="6" stroke-linecap="round"/>
    <path d="M74 156c6-10 18-24 28-22s14 22 30 22 22-22 32-22 20 14 26 26" stroke="#2e7d32" stroke-width="6" stroke-linecap="round"/>
    <circle cx="98" cy="176" r="10" fill="#fef3c7"/>
    <circle cx="144" cy="174" r="10" fill="#fef3c7"/>
    <circle cx="120" cy="164" r="8" fill="#fef3c7"/>
  </g>
  <text x="160" y="380" text-anchor="middle" font-family="Montserrat, 'Segoe UI', sans-serif" font-weight="700" font-size="34" fill="#fff">BÚN BÒ HUẾ</text>
  <text x="160" y="418" text-anchor="middle" font-family="Montserrat, 'Segoe UI', sans-serif" font-weight="500" font-size="16" fill="#fff">Nước dùng xương • Chả bò • Giao nóng</text>
</svg>
